<mxfile host="app.diagrams.net" modified="2024-01-16T07:31:11.793Z" agent="Mozilla/5.0 (Windows NT 10.0; Win64; x64; rv:121.0) Gecko/20100101 Firefox/121.0" version="22.1.18" etag="fpTzz5b6ST3aqNbtFjw4" type="github">
  <diagram name="Page-1" id="YCOrAq-4Cg0RT8KvJLxY">
    <mxGraphModel>
      <root>
        <mxCell id="0" />
        <mxCell id="1" parent="0" />
      </root>
    </mxGraphModel>
  </diagram>
</mxfile>
